<svg width="61" height="60" viewBox="0 0 61 60" fill="none" xmlns="http://www.w3.org/2000/svg">
<rect x="1" y="0.5" width="59" height="59" rx="29.5" fill="white"/>
<rect x="1" y="0.5" width="59" height="59" rx="29.5" stroke="#F2F4F5"/>
<path d="M31.5 19C32.0523 19 32.5 19.4477 32.5 20V23C32.5 24.6569 33.8431 26 35.5 26H38.5C39.0523 26 39.5 26.4477 39.5 27V38C39.5 39.6569 38.1569 41 36.5 41H24.5C22.8431 41 21.5 39.6569 21.5 38V22C21.5 20.3431 22.8431 19 24.5 19H31.5Z" fill="#737279"/>
<path d="M35.4774 19.1766C34.9681 18.963 34.5 19.4468 34.5 19.9991V22.9991C34.5 23.5514 34.9477 23.9991 35.5 23.9991H38.5C39.0523 23.9991 39.5361 23.531 39.3225 23.0216C39.23 22.8011 39.0972 22.5962 38.9142 22.4133L36.0858 19.5849C35.9028 19.4019 35.6979 19.2691 35.4774 19.1766Z" fill="#737279"/>
</svg>
