<svg width="20" height="20" viewBox="0 0 20 20" fill="none" xmlns="http://www.w3.org/2000/svg">
<path d="M11.6857 2.5002H13.7513C14.2115 2.5002 14.5846 2.8733 14.5846 3.33354C14.5846 3.79377 14.2115 4.16687 13.7513 4.16687H12.3186L9.40194 15.8335H10.8346C11.2949 15.8335 11.668 16.2066 11.668 16.6669C11.668 17.1271 11.2949 17.5002 10.8346 17.5002H8.35302C8.34121 17.5005 8.32937 17.5005 8.31749 17.5002H6.2513C5.79106 17.5002 5.41797 17.1271 5.41797 16.6669C5.41797 16.2066 5.79106 15.8335 6.2513 15.8335H7.68398L10.6006 4.16687H9.16797C8.70773 4.16687 8.33464 3.79377 8.33464 3.33354C8.33464 2.8733 8.70773 2.5002 9.16797 2.5002H11.649C11.6612 2.49993 11.6734 2.49993 11.6857 2.5002Z" fill="#777E90"/>
</svg>
