<svg width="36" height="36" viewBox="0 0 36 36" fill="none" xmlns="http://www.w3.org/2000/svg">
<rect width="36" height="36" rx="8" fill="#F5F7F9"/>
<path fill-rule="evenodd" clip-rule="evenodd" d="M25 16C25 11.9408 22.7616 9.1235 19.8654 8.27771C19.7605 8.00636 19.5948 7.7541 19.3695 7.54243C18.5997 6.81919 17.4003 6.81919 16.6305 7.54243C16.4057 7.75364 16.2402 8.00525 16.1353 8.27592C13.2354 9.11803 11 11.9292 11 16C11 18.6339 10.469 20.1098 9.48596 21.1793C9.32161 21.3582 8.87632 21.7678 8.57468 22.0453L8.57465 22.0453L8.57465 22.0453L8.5745 22.0454C8.43187 22.1766 8.32138 22.2783 8.28796 22.3119L8 22.604V26.0141H14.088C14.2938 27.0761 14.8701 27.7867 15.9122 28.4226C17.1941 29.2049 18.8059 29.2049 20.0878 28.4226C21.0075 27.8614 21.6241 26.9989 21.8743 26.0141H28V22.604L27.712 22.3119C27.6817 22.2812 27.5757 22.1834 27.437 22.0555C27.1363 21.7781 26.6823 21.3592 26.5154 21.1769C25.5317 20.1024 25 18.6246 25 16ZM19.7367 26.0141H16.1786C16.3199 26.2769 16.5607 26.4754 16.954 26.7154C17.5963 27.1073 18.4037 27.1073 19.046 26.7154C19.3434 26.5339 19.5758 26.2937 19.7367 26.0141ZM25.0402 22.5274C25.2506 22.7573 25.7016 23.1774 26 23.4519V24.0141H10V23.4524C10.2961 23.1811 10.7484 22.7613 10.9585 22.5327C12.2942 21.0794 13 19.1178 13 16C13 12.2199 15.3328 10.0124 18 10.0124C20.6597 10.0124 23 12.2313 23 16C23 19.1078 23.706 21.07 25.0402 22.5274Z" fill="#929CAD"/>
<circle cx="24" cy="12" r="6" fill="white"/>
<circle cx="24" cy="12" r="4" fill="#F94545"/>
</svg>
