<svg width="24" height="24" viewBox="0 0 24 24" fill="none" xmlns="http://www.w3.org/2000/svg">
<path fill-rule="evenodd" clip-rule="evenodd" d="M21 4.5C21 5.32843 20.3284 6 19.5 6C18.6716 6 18 5.32843 18 4.5C18 3.67157 18.6716 3 19.5 3C20.3284 3 21 3.67157 21 4.5ZM23 4.5C23 6.433 21.433 8 19.5 8C17.567 8 16 6.433 16 4.5C16 2.567 17.567 1 19.5 1C21.433 1 23 2.567 23 4.5ZM15 3H6C2.68629 3 0 5.68629 0 9V18C0 21.3137 2.68629 24 6 24H15C18.3137 24 21 21.3137 21 18V9H19V18C19 20.2091 17.2091 22 15 22H6C3.79086 22 2 20.2091 2 18V9C2 6.79086 3.79086 5 6 5H15V3ZM16 12C16 12.55 15.55 13 15 13C14.91 13 14.825 12.99 14.745 12.965L12.965 14.74C12.99 14.82 13 14.91 13 15C13 15.55 12.55 16 12 16C11.45 16 11 15.55 11 15C11 14.91 11.01 14.82 11.035 14.74L9.76 13.465C9.68 13.49 9.59 13.5 9.5 13.5C9.41 13.5 9.32 13.49 9.24 13.465L6.965 15.745C6.99 15.825 7 15.91 7 16C7 16.55 6.55 17 6 17C5.45 17 5 16.55 5 16C5 15.45 5.45 15 6 15C6.09 15 6.175 15.01 6.255 15.035L8.535 12.76C8.51 12.68 8.5 12.59 8.5 12.5C8.5 11.95 8.95 11.5 9.5 11.5C10.05 11.5 10.5 11.95 10.5 12.5C10.5 12.59 10.49 12.68 10.465 12.76L11.74 14.035C11.82 14.01 11.91 14 12 14C12.09 14 12.18 14.01 12.26 14.035L14.035 12.255C14.01 12.175 14 12.09 14 12C14 11.45 14.45 11 15 11C15.55 11 16 11.45 16 12Z" fill="white"/>
</svg>
