<svg width="24" height="24" viewBox="0 0 24 24" fill="none" xmlns="http://www.w3.org/2000/svg">
<path fill-rule="evenodd" clip-rule="evenodd" d="M20 7.4955C20 5.45552 18.3863 3.8018 16.3956 3.8018H16.307C15.9134 2.73729 14.9099 2 13.7582 2H10.2418C9.09014 2 8.08663 2.73729 7.693 3.8018H7.6044C5.61374 3.8018 4 5.45552 4 7.4955V18.3063C4 20.3463 5.61374 22 7.6044 22H16.3956C18.3863 22 20 20.3463 20 18.3063V7.4955ZM7.60392 5.78369H7.69253C8.08615 6.8482 9.08967 7.58549 10.2413 7.58549H13.7578C14.9094 7.58549 15.9129 6.8482 16.3065 5.78369H16.3951C17.3176 5.78369 18.0655 6.55005 18.0655 7.4954V18.3062C18.0655 19.2516 17.3176 20.0179 16.3951 20.0179H7.60392C6.68143 20.0179 5.93359 19.2516 5.93359 18.3062V7.4954C5.93359 6.55005 6.68143 5.78369 7.60392 5.78369ZM10.2414 3.98193C9.80443 3.98193 9.4502 4.34495 9.4502 4.79274C9.4502 5.24054 9.80443 5.60356 10.2414 5.60356H13.7579C14.1949 5.60356 14.5491 5.24054 14.5491 4.79274C14.5491 4.34495 14.1949 3.98193 13.7579 3.98193H10.2414ZM7.51648 10.1982C7.51648 10.7455 7.94944 11.1892 8.48352 11.1892H15.5165C16.0506 11.1892 16.4835 10.7455 16.4835 10.1982C16.4835 9.65089 16.0506 9.20721 15.5165 9.20721H8.48352C7.94944 9.20721 7.51648 9.65089 7.51648 10.1982ZM7.51648 13.8018C7.51648 14.3491 7.94944 14.7928 8.48352 14.7928H15.5165C16.0506 14.7928 16.4835 14.3491 16.4835 13.8018C16.4835 13.2545 16.0506 12.8108 15.5165 12.8108H8.48352C7.94944 12.8108 7.51648 13.2545 7.51648 13.8018ZM8.48352 18.3964C7.94944 18.3964 7.51648 17.9527 7.51648 17.4054C7.51648 16.8581 7.94944 16.4144 8.48352 16.4144H15.5165C16.0506 16.4144 16.4835 16.8581 16.4835 17.4054C16.4835 17.9527 16.0506 18.3964 15.5165 18.3964H8.48352Z" fill="#B2B2B8"/>
</svg>
