<svg width="20" height="20" viewBox="0 0 20 20" fill="none" xmlns="http://www.w3.org/2000/svg">
<path fill-rule="evenodd" clip-rule="evenodd" d="M10.0013 16.666C13.6832 16.666 16.668 13.6812 16.668 9.99935C16.668 6.31745 13.6832 3.33268 10.0013 3.33268C6.3194 3.33268 3.33464 6.31745 3.33464 9.99935C3.33464 13.6812 6.3194 16.666 10.0013 16.666ZM10.0013 18.3327C14.6037 18.3327 18.3346 14.6017 18.3346 9.99935C18.3346 5.39698 14.6037 1.66602 10.0013 1.66602C5.39893 1.66602 1.66797 5.39698 1.66797 9.99935C1.66797 14.6017 5.39893 18.3327 10.0013 18.3327Z" fill="#777E90"/>
<path fill-rule="evenodd" clip-rule="evenodd" d="M5.84756 10.9039C6.2693 10.7196 6.76056 10.9121 6.94483 11.3339C7.45996 12.5129 8.63558 13.3342 10.0012 13.3342C11.3667 13.3342 12.5424 12.5129 13.0575 11.3339C13.2418 10.9121 13.733 10.7196 14.1548 10.9039C14.5765 11.0882 14.769 11.5794 14.5848 12.0012C13.814 13.7653 12.0528 15.0009 10.0012 15.0009C7.94955 15.0009 6.18837 13.7653 5.41757 12.0012C5.23331 11.5794 5.42582 11.0882 5.84756 10.9039Z" fill="#777E90"/>
<path d="M7.4987 7.49935C7.4987 7.95959 7.1256 8.33268 6.66536 8.33268C6.20513 8.33268 5.83203 7.95959 5.83203 7.49935C5.83203 7.03911 6.20513 6.66602 6.66536 6.66602C7.1256 6.66602 7.4987 7.03911 7.4987 7.49935Z" fill="#777E90"/>
<path d="M14.1667 7.49935C14.1667 7.95959 13.7936 8.33268 13.3333 8.33268C12.8731 8.33268 12.5 7.95959 12.5 7.49935C12.5 7.03911 12.8731 6.66602 13.3333 6.66602C13.7936 6.66602 14.1667 7.03911 14.1667 7.49935Z" fill="#777E90"/>
</svg>
