<svg width="20" height="20" viewBox="0 0 20 20" fill="none" xmlns="http://www.w3.org/2000/svg">
<path fill-rule="evenodd" clip-rule="evenodd" d="M4.16797 17.4993C4.16797 17.0391 4.54106 16.666 5.0013 16.666H15.0013C15.4615 16.666 15.8346 17.0391 15.8346 17.4993C15.8346 17.9596 15.4615 18.3327 15.0013 18.3327H5.0013C4.54106 18.3327 4.16797 17.9596 4.16797 17.4993Z" fill="#777E90"/>
<path fill-rule="evenodd" clip-rule="evenodd" d="M5.0013 1.66602C5.46154 1.66602 5.83464 2.03911 5.83464 2.49935V9.16602C5.83464 11.4672 7.70012 13.3327 10.0013 13.3327C12.3025 13.3327 14.168 11.4672 14.168 9.16602V2.49935C14.168 2.03911 14.5411 1.66602 15.0013 1.66602C15.4615 1.66602 15.8346 2.03911 15.8346 2.49935V9.16602C15.8346 12.3877 13.223 14.9993 10.0013 14.9993C6.77964 14.9993 4.16797 12.3877 4.16797 9.16602V2.49935C4.16797 2.03911 4.54106 1.66602 5.0013 1.66602Z" fill="#777E90"/>
</svg>
