<svg width="24" height="24" viewBox="0 0 24 24" fill="none" xmlns="http://www.w3.org/2000/svg">
<path d="M21 12.0058C20.7348 12.0058 20.4804 12.1112 20.2929 12.2987C20.1054 12.4862 20 12.7406 20 13.0058V19.0058C20 19.271 19.8946 19.5254 19.7071 19.7129C19.5196 19.9004 19.2652 20.0058 19 20.0058H5C4.73478 20.0058 4.48043 19.9004 4.29289 19.7129C4.10536 19.5254 4 19.271 4 19.0058V5.0058C4 4.74058 4.10536 4.48623 4.29289 4.29869C4.48043 4.11116 4.73478 4.0058 5 4.0058H11C11.2652 4.0058 11.5196 3.90044 11.7071 3.71291C11.8946 3.52537 12 3.27101 12 3.0058C12 2.74058 11.8946 2.48623 11.7071 2.29869C11.5196 2.11116 11.2652 2.0058 11 2.0058H5C4.20435 2.0058 3.44129 2.32187 2.87868 2.88448C2.31607 3.44709 2 4.21015 2 5.0058V19.0058C2 19.8014 2.31607 20.5645 2.87868 21.1271C3.44129 21.6897 4.20435 22.0058 5 22.0058H19C19.7956 22.0058 20.5587 21.6897 21.1213 21.1271C21.6839 20.5645 22 19.8014 22 19.0058V13.0058C22 12.7406 21.8946 12.4862 21.7071 12.2987C21.5196 12.1112 21.2652 12.0058 21 12.0058ZM6 12.7658V17.0058C6 17.271 6.10536 17.5254 6.29289 17.7129C6.48043 17.9004 6.73478 18.0058 7 18.0058H11.24C11.3716 18.0066 11.5021 17.9813 11.6239 17.9316C11.7457 17.8818 11.8566 17.8085 11.95 17.7158L18.87 10.7858L21.71 8.0058C21.8037 7.91284 21.8781 7.80223 21.9289 7.68038C21.9797 7.55852 22.0058 7.42781 22.0058 7.2958C22.0058 7.16379 21.9797 7.03308 21.9289 6.91122C21.8781 6.78936 21.8037 6.67876 21.71 6.5858L17.47 2.2958C17.377 2.20207 17.2664 2.12768 17.1446 2.07691C17.0227 2.02614 16.892 2 16.76 2C16.628 2 16.4973 2.02614 16.3754 2.07691C16.2536 2.12768 16.143 2.20207 16.05 2.2958L13.23 5.1258L6.29 12.0558C6.19732 12.1492 6.12399 12.2601 6.07423 12.3819C6.02446 12.5037 5.99924 12.6342 6 12.7658ZM16.76 4.4158L19.59 7.2458L18.17 8.6658L15.34 5.8358L16.76 4.4158ZM8 13.1758L13.93 7.2458L16.76 10.0758L10.83 16.0058H8V13.1758Z" fill="#929CAD"/>
</svg>
