<svg width="40" height="40" viewBox="0 0 40 40" fill="none" xmlns="http://www.w3.org/2000/svg">
<path d="M11.3397 5C16.6987 1.90599 23.3013 1.90599 28.6603 5C34.0192 8.09401 37.3205 13.812 37.3205 20C37.3205 26.188 34.0192 31.906 28.6603 35C23.3013 38.094 16.6987 38.094 11.3397 35C5.98076 31.906 2.67949 26.188 2.67949 20C2.67949 13.812 5.98076 8.09401 11.3397 5Z" fill="url(#paint0_linear_35_12042)"/>
<path fill-rule="evenodd" clip-rule="evenodd" d="M26.7143 22.396C26.7143 18.5913 23.6442 15.5069 19.8571 15.5069C16.07 15.5069 13 18.5913 13 22.396C13 26.2008 16.07 29.2852 19.8571 29.2852C23.6442 29.2852 26.7143 26.2008 26.7143 22.396ZM19.8571 18.8979C21.7801 18.8979 23.339 20.4641 23.339 22.396C23.339 24.328 21.7801 25.8941 19.8571 25.8941C17.9342 25.8941 16.3753 24.328 16.3753 22.396V18.8979H19.8571Z" fill="black"/>
<path fill-rule="evenodd" clip-rule="evenodd" d="M19.8571 15.5069C23.6442 15.5069 26.7143 18.5913 26.7143 22.396C26.7143 26.2008 23.6442 29.2852 19.8571 29.2852C16.07 29.2852 13 26.2008 13 22.396V15.5069H19.8571ZM19.8571 18.8979C21.7801 18.8979 23.339 20.4641 23.339 22.396C23.339 24.328 21.7801 25.8941 19.8571 25.8941C17.9342 25.8941 16.3753 24.328 16.3753 22.396V18.8979H19.8571Z" fill="white"/>
<path d="M16.0723 15.5136V18.8867H19.8469V15.5136H16.0723Z" fill="url(#paint1_linear_35_12042)"/>
<path d="M13 11C14.8648 11 16.3766 12.5118 16.3766 14.3766V19.1696H13V11Z" fill="white"/>
<defs>
<linearGradient id="paint0_linear_35_12042" x1="1.5" y1="14.5" x2="37" y2="24.5" gradientUnits="userSpaceOnUse">
<stop stop-color="#0781FF"/>
<stop offset="0.494792" stop-color="#4A46FF"/>
<stop offset="1" stop-color="#9106FF"/>
</linearGradient>
<linearGradient id="paint1_linear_35_12042" x1="16.0723" y1="17.2001" x2="19.8469" y2="17.2001" gradientUnits="userSpaceOnUse">
<stop stop-color="#C2C2C2"/>
<stop offset="1" stop-color="white"/>
</linearGradient>
</defs>
</svg>
